<svg xmlns="http://www.w3.org/2000/svg" width="1400" height="560" viewBox="0 0 1400 560" role="img" aria-labelledby="title desc">
  <title id="title">Email Analyzer workflow</title>
  <desc id="desc">Raw emails move through prepare, render-batch, submit-batch, and batch-output-to-xlsx to produce JSON, batch JSONL, batch results, and XLSX output.</desc>

  <defs>
    <marker id="arrow" viewBox="0 0 10 10" refX="9" refY="5" markerWidth="8" markerHeight="8" orient="auto">
      <path d="M 0 0 L 10 5 L 0 10 z" fill="#64748b"/>
    </marker>
    <style>
      .title {
        font-family: -apple-system, BlinkMacSystemFont, "Segoe UI", sans-serif;
        font-size: 30px;
        font-weight: 700;
        fill: #0f172a;
      }
      .subtitle {
        font-family: -apple-system, BlinkMacSystemFont, "Segoe UI", sans-serif;
        font-size: 16px;
        fill: #475569;
      }
      .section-label {
        font-family: -apple-system, BlinkMacSystemFont, "Segoe UI", sans-serif;
        font-size: 18px;
        font-weight: 700;
        fill: #0f172a;
      }
      .process-box {
        fill: #dbeafe;
        stroke: #2563eb;
        stroke-width: 2;
      }
      .data-box {
        fill: #f8fafc;
        stroke: #64748b;
        stroke-width: 2;
      }
      .box-title {
        font-family: -apple-system, BlinkMacSystemFont, "Segoe UI", sans-serif;
        font-size: 21px;
        font-weight: 700;
        fill: #0f172a;
        text-anchor: middle;
      }
      .box-title-tight {
        font-family: -apple-system, BlinkMacSystemFont, "Segoe UI", sans-serif;
        font-size: 18px;
        font-weight: 700;
        fill: #0f172a;
        text-anchor: middle;
      }
      .box-body {
        font-family: -apple-system, BlinkMacSystemFont, "Segoe UI", sans-serif;
        font-size: 14px;
        fill: #334155;
        text-anchor: middle;
      }
      .note-title {
        font-family: -apple-system, BlinkMacSystemFont, "Segoe UI", sans-serif;
        font-size: 16px;
        font-weight: 700;
        fill: #0f172a;
      }
      .note-body {
        font-family: -apple-system, BlinkMacSystemFont, "Segoe UI", sans-serif;
        font-size: 14px;
        fill: #334155;
      }
      .legend-label {
        font-family: -apple-system, BlinkMacSystemFont, "Segoe UI", sans-serif;
        font-size: 13px;
        fill: #334155;
      }
      .arrow {
        stroke: #64748b;
        stroke-width: 3;
        fill: none;
        marker-end: url(#arrow);
        stroke-linecap: round;
        stroke-linejoin: round;
      }
    </style>
  </defs>

  <rect x="0.5" y="0.5" width="1399" height="559" rx="24" fill="#ffffff" stroke="#e2e8f0"/>

  <text x="56" y="56" class="title">Email Analyzer Workflow</text>
  <text x="56" y="84" class="subtitle">Raw emails become reduced JSON, batch JSONL, OpenAI results, and optional XLSX output.</text>

  <rect x="998" y="20" width="346" height="86" rx="18" fill="#ffffff" stroke="#cbd5e1" stroke-width="1.5"/>
  <text x="1022" y="46" class="note-title">Stable identity</text>
  <text x="1022" y="67" class="note-body">filename = email_id = custom_id</text>
  <rect x="1022" y="79" width="18" height="12" rx="4" class="process-box"/>
  <text x="1049" y="89" class="legend-label">process step</text>
  <rect x="1146" y="79" width="18" height="12" rx="4" class="data-box"/>
  <text x="1173" y="89" class="legend-label">data artifact</text>

  <rect x="40" y="120" width="1320" height="160" rx="22" fill="#f8fafc" stroke="#e2e8f0" stroke-width="1.5"/>
  <text x="68" y="152" class="section-label">Core pipeline</text>

  <rect x="70" y="170" width="190" height="96" rx="14" class="data-box"/>
  <text x="165" y="207" class="box-title">input/</text>
  <text x="165" y="233" class="box-body">raw RFC822 emails</text>

  <rect x="310" y="170" width="170" height="96" rx="18" class="process-box"/>
  <text x="395" y="207" class="box-title">prepare</text>
  <text x="395" y="233" class="box-body">parse + reduce MIME</text>

  <rect x="530" y="170" width="220" height="96" rx="14" class="data-box"/>
  <text x="640" y="205" class="box-title">output/*.json</text>
  <text x="640" y="229" class="box-body">one reduced artifact</text>
  <text x="640" y="247" class="box-body">per email</text>

  <rect x="800" y="170" width="190" height="96" rx="18" class="process-box"/>
  <text x="895" y="205" class="box-title-tight">render-batch</text>
  <text x="895" y="229" class="box-body">render /v1/responses</text>
  <text x="895" y="247" class="box-body">JSONL requests</text>

  <rect x="1040" y="170" width="260" height="96" rx="14" class="data-box"/>
  <text x="1170" y="205" class="box-title-tight">output/batches/*.jsonl</text>
  <text x="1170" y="233" class="box-body">OpenAI batch shard</text>

  <path d="M 260 218 H 310" class="arrow"/>
  <path d="M 480 218 H 530" class="arrow"/>
  <path d="M 750 218 H 800" class="arrow"/>
  <path d="M 990 218 H 1040" class="arrow"/>

  <rect x="40" y="300" width="1320" height="200" rx="22" fill="#fff7ed" stroke="#fdba74" stroke-width="1.5"/>
  <text x="68" y="332" class="section-label">Optional OpenAI submission + export</text>
  <text x="68" y="356" class="subtitle">Use Structured Outputs with a schema file, then submit the shard and export successful results to Excel.</text>

  <rect x="80" y="392" width="200" height="92" rx="18" class="process-box"/>
  <text x="180" y="428" class="box-title-tight">submit-batch</text>
  <text x="180" y="454" class="box-body">autoloads .env</text>

  <rect x="350" y="392" width="320" height="92" rx="14" class="data-box"/>
  <text x="510" y="426" class="box-title-tight">batch_output/batch-00001/</text>
  <text x="510" y="450" class="box-body">batch_output.jsonl + summary files</text>

  <rect x="740" y="392" width="260" height="92" rx="18" class="process-box"/>
  <text x="870" y="426" class="box-title-tight">batch-output-to-xlsx</text>
  <text x="870" y="450" class="box-body">custom_id + schema fields</text>

  <rect x="1070" y="392" width="180" height="92" rx="14" class="data-box"/>
  <text x="1160" y="428" class="box-title">.xlsx</text>
  <text x="1160" y="454" class="box-body">spreadsheet export</text>

  <path d="M 1170 266 V 374 H 180 V 392" class="arrow"/>
  <path d="M 280 438 H 350" class="arrow"/>
  <path d="M 670 438 H 740" class="arrow"/>
  <path d="M 1000 438 H 1070" class="arrow"/>
</svg>
