<svg xmlns="http://www.w3.org/2000/svg" width="1400" height="760" viewBox="0 0 1400 760" role="img" aria-labelledby="title desc">
  <title id="title">Email Analyzer workflow</title>
  <desc id="desc">Raw emails move through prepare and render-batch into a JSONL shard that can be submitted to either OpenAI batch processing or a local Ollama host, then exported to XLSX.</desc>

  <defs>
    <marker id="arrow" viewBox="0 0 10 10" refX="8.5" refY="5" markerWidth="7" markerHeight="7" orient="auto">
      <path d="M 0 0 L 10 5 L 0 10 z" fill="#64748b"/>
    </marker>
    <style>
      .title {
        font-family: -apple-system, BlinkMacSystemFont, "Segoe UI", sans-serif;
        font-size: 31px;
        font-weight: 700;
        letter-spacing: -0.3px;
        fill: #0f172a;
      }
      .subtitle {
        font-family: -apple-system, BlinkMacSystemFont, "Segoe UI", sans-serif;
        font-size: 15px;
        fill: #475569;
      }
      .section-label {
        font-family: -apple-system, BlinkMacSystemFont, "Segoe UI", sans-serif;
        font-size: 17px;
        font-weight: 700;
        letter-spacing: 0.2px;
        fill: #0f172a;
      }
      .callout {
        fill: #ffffff;
        stroke: #cbd5e1;
        stroke-width: 1.25;
      }
      .panel {
        fill: #fbfdff;
        stroke: #dbe3ee;
        stroke-width: 1.25;
      }
      .panel-optional {
        fill: #fffdf8;
        stroke: #f5c58f;
        stroke-width: 1.25;
      }
      .process-box {
        fill: #eaf3ff;
        stroke: #3b82f6;
        stroke-width: 1.75;
      }
      .data-box {
        fill: #ffffff;
        stroke: #64748b;
        stroke-width: 1.75;
      }
      .data-fold {
        fill: #eef2f7;
      }
      .data-fold-line {
        stroke: #94a3b8;
        stroke-width: 1.25;
        fill: none;
        stroke-linecap: round;
        stroke-linejoin: round;
      }
      .box-title {
        font-family: -apple-system, BlinkMacSystemFont, "Segoe UI", sans-serif;
        font-size: 20px;
        font-weight: 600;
        letter-spacing: -0.1px;
        fill: #0f172a;
        text-anchor: middle;
      }
      .box-title-tight {
        font-family: -apple-system, BlinkMacSystemFont, "Segoe UI", sans-serif;
        font-size: 18px;
        font-weight: 600;
        letter-spacing: -0.1px;
        fill: #0f172a;
        text-anchor: middle;
      }
      .box-body {
        font-family: -apple-system, BlinkMacSystemFont, "Segoe UI", sans-serif;
        font-size: 14px;
        fill: #475569;
        text-anchor: middle;
      }
      .note-title {
        font-family: -apple-system, BlinkMacSystemFont, "Segoe UI", sans-serif;
        font-size: 15px;
        font-weight: 700;
        fill: #0f172a;
      }
      .note-body {
        font-family: -apple-system, BlinkMacSystemFont, "Segoe UI", sans-serif;
        font-size: 13px;
        fill: #475569;
      }
      .legend-label {
        font-family: -apple-system, BlinkMacSystemFont, "Segoe UI", sans-serif;
        font-size: 12px;
        fill: #475569;
      }
      .arrow {
        stroke: #64748b;
        stroke-width: 2.5;
        fill: none;
        marker-end: url(#arrow);
        stroke-linecap: round;
        stroke-linejoin: round;
      }
    </style>
  </defs>

  <rect x="0.5" y="0.5" width="1399" height="759" rx="24" fill="#ffffff" stroke="#e5e7eb" stroke-width="1"/>

  <text x="56" y="56" class="title">Email Analyzer Workflow</text>
  <text x="56" y="84" class="subtitle">Raw emails become reduced JSON, batch JSONL, OpenAI or Ollama results, and optional XLSX output.</text>

  <rect x="998" y="20" width="346" height="86" rx="18" class="callout"/>
  <text x="1022" y="46" class="note-title">Stable identity</text>
  <text x="1022" y="67" class="note-body">filename = email_id = custom_id</text>
  <rect x="1022" y="79" width="18" height="12" rx="4" class="process-box"/>
  <text x="1049" y="89" class="legend-label">process step</text>
  <rect x="1146" y="79" width="18" height="12" rx="4" class="data-box"/>
  <path d="M 1156 79 H 1161 Q 1164 79 1164 82 V 87 Z" class="data-fold"/>
  <path d="M 1156 79 L 1164 87" class="data-fold-line"/>
  <text x="1173" y="89" class="legend-label">data artifact</text>

  <rect x="40" y="120" width="1320" height="160" rx="22" class="panel"/>
  <text x="68" y="152" class="section-label">Core pipeline</text>

  <rect x="70" y="170" width="190" height="96" rx="14" class="data-box"/>
  <path d="M 224 170 H 246 Q 260 170 260 184 V 206 Z" class="data-fold"/>
  <path d="M 224 170 L 260 206" class="data-fold-line"/>
  <text x="165" y="207" class="box-title">input/</text>
  <text x="165" y="233" class="box-body">raw RFC822 emails</text>

  <rect x="310" y="170" width="170" height="96" rx="18" class="process-box"/>
  <text x="395" y="207" class="box-title">prepare</text>
  <text x="395" y="233" class="box-body">parse + reduce MIME</text>

  <rect x="530" y="170" width="220" height="96" rx="14" class="data-box"/>
  <path d="M 714 170 H 736 Q 750 170 750 184 V 206 Z" class="data-fold"/>
  <path d="M 714 170 L 750 206" class="data-fold-line"/>
  <text x="640" y="205" class="box-title">output/*.json</text>
  <text x="640" y="229" class="box-body">one reduced artifact</text>
  <text x="640" y="247" class="box-body">per email</text>

  <rect x="800" y="170" width="190" height="96" rx="18" class="process-box"/>
  <text x="895" y="205" class="box-title-tight">render-batch</text>
  <text x="895" y="229" class="box-body">render /v1/responses</text>
  <text x="895" y="247" class="box-body">JSONL requests</text>

  <rect x="1040" y="170" width="260" height="96" rx="14" class="data-box"/>
  <path d="M 1264 170 H 1286 Q 1300 170 1300 184 V 206 Z" class="data-fold"/>
  <path d="M 1264 170 L 1300 206" class="data-fold-line"/>
  <text x="1170" y="205" class="box-title-tight">output/batches/*.jsonl</text>
  <text x="1170" y="233" class="box-body">OpenAI batch shard</text>

  <path d="M 260 218 H 310" class="arrow"/>
  <path d="M 480 218 H 530" class="arrow"/>
  <path d="M 750 218 H 800" class="arrow"/>
  <path d="M 990 218 H 1040" class="arrow"/>

  <rect x="40" y="300" width="1320" height="200" rx="22" class="panel-optional"/>
  <text x="68" y="332" class="section-label">Optional OpenAI submission + export</text>
  <text x="68" y="356" class="subtitle">Use Structured Outputs with a schema file, then submit the shard to OpenAI Batch API and export successful results to Excel.</text>

  <rect x="80" y="392" width="200" height="92" rx="18" class="process-box"/>
  <text x="180" y="428" class="box-title-tight">submit-batch</text>
  <text x="180" y="454" class="box-body">autoloads .env</text>

  <rect x="350" y="392" width="320" height="92" rx="14" class="data-box"/>
  <path d="M 634 392 H 656 Q 670 392 670 406 V 428 Z" class="data-fold"/>
  <path d="M 634 392 L 670 428" class="data-fold-line"/>
  <text x="510" y="426" class="box-title-tight">batch_output/batch-00001/</text>
  <text x="510" y="450" class="box-body">batch_output.jsonl + summary files</text>

  <rect x="740" y="392" width="260" height="92" rx="18" class="process-box"/>
  <text x="870" y="426" class="box-title-tight">batch-output-to-xlsx</text>
  <text x="870" y="450" class="box-body">custom_id + schema fields</text>

  <rect x="1070" y="392" width="180" height="92" rx="14" class="data-box"/>
  <path d="M 1214 392 H 1236 Q 1250 392 1250 406 V 428 Z" class="data-fold"/>
  <path d="M 1214 392 L 1250 428" class="data-fold-line"/>
  <text x="1160" y="428" class="box-title">.xlsx</text>
  <text x="1160" y="454" class="box-body">spreadsheet export</text>

  <path d="M 1170 266 V 374 H 180 V 392" class="arrow"/>
  <path d="M 280 438 H 350" class="arrow"/>
  <path d="M 670 438 H 740" class="arrow"/>
  <path d="M 1000 438 H 1070" class="arrow"/>

  <rect x="40" y="520" width="1320" height="200" rx="22" class="panel-optional"/>
  <text x="68" y="552" class="section-label">Optional Ollama submission + export</text>
  <text x="68" y="576" class="subtitle">Run the same rendered shard locally against one Ollama host, then export successful structured results to Excel.</text>

  <rect x="80" y="612" width="230" height="92" rx="18" class="process-box"/>
  <text x="195" y="646" class="box-title-tight">submit-ollama-batch</text>
  <text x="195" y="670" class="box-body">uses OLLAMA_BASE_URL</text>
  <text x="195" y="688" class="box-body">and OLLAMA_MODEL</text>

  <rect x="380" y="612" width="330" height="92" rx="14" class="data-box"/>
  <path d="M 674 612 H 696 Q 710 612 710 626 V 648 Z" class="data-fold"/>
  <path d="M 674 612 L 710 648" class="data-fold-line"/>
  <text x="545" y="646" class="box-title-tight">ollama_batch_output/batch-00001/</text>
  <text x="545" y="670" class="box-body">batch_output.jsonl + summary files</text>

  <rect x="780" y="612" width="260" height="92" rx="18" class="process-box"/>
  <text x="910" y="646" class="box-title-tight">batch-output-to-xlsx</text>
  <text x="910" y="670" class="box-body">same downstream export</text>

  <rect x="1110" y="612" width="180" height="92" rx="14" class="data-box"/>
  <path d="M 1254 612 H 1276 Q 1290 612 1290 626 V 648 Z" class="data-fold"/>
  <path d="M 1254 612 L 1290 648" class="data-fold-line"/>
  <text x="1200" y="648" class="box-title">.xlsx</text>
  <text x="1200" y="674" class="box-body">spreadsheet export</text>

  <path d="M 1170 266 V 594 H 195 V 612" class="arrow"/>
  <path d="M 310 658 H 380" class="arrow"/>
  <path d="M 710 658 H 780" class="arrow"/>
  <path d="M 1040 658 H 1110" class="arrow"/>
</svg>
